<mxfile host="app.diagrams.net" modified="2023-11-15T17:01:59.384Z" agent="Mozilla/5.0 (Windows NT 10.0; Win64; x64) AppleWebKit/537.36 (KHTML, like Gecko) Chrome/119.0.0.0 Safari/537.36" etag="rWtRTdOi5AnCJKG2vT-Z" version="22.1.1" type="device">
  <diagram id="C5RBs43oDa-KdzZeNtuy" name="Page-1">
    <mxGraphModel dx="2150" dy="943" grid="1" gridSize="10" guides="1" tooltips="1" connect="1" arrows="1" fold="1" page="1" pageScale="1" pageWidth="827" pageHeight="1169" math="0" shadow="0">
      <root>
        <mxCell id="WIyWlLk6GJQsqaUBKTNV-0" />
        <mxCell id="WIyWlLk6GJQsqaUBKTNV-1" parent="WIyWlLk6GJQsqaUBKTNV-0" />
        <mxCell id="w7Sn68mtCisgfnPRvTzS-2" value="" style="rounded=0;whiteSpace=wrap;html=1;" parent="WIyWlLk6GJQsqaUBKTNV-1" vertex="1">
          <mxGeometry x="60" y="50" width="310" height="920" as="geometry" />
        </mxCell>
        <mxCell id="6G4YK3N6DJGTedGCTqt3-0" value="&lt;p style=&quot;margin:0px;margin-top:4px;text-align:center;&quot;&gt;&lt;b&gt;RegisterController&lt;/b&gt;&lt;/p&gt;&lt;hr size=&quot;1&quot;&gt;&lt;p style=&quot;margin:0px;margin-left:4px;&quot;&gt;- teamService: TeamService&lt;/p&gt;&lt;hr size=&quot;1&quot;&gt;&lt;p style=&quot;margin:0px;margin-left:4px;&quot;&gt;+ registerTeacher(Integer teacherId, Integer studentId): void&lt;/p&gt;" style="verticalAlign=top;align=left;overflow=fill;fontSize=12;fontFamily=Helvetica;html=1;whiteSpace=wrap;" parent="WIyWlLk6GJQsqaUBKTNV-1" vertex="1">
          <mxGeometry x="80" y="90" width="248.75" height="100" as="geometry" />
        </mxCell>
        <mxCell id="6G4YK3N6DJGTedGCTqt3-1" value="&lt;p style=&quot;margin:0px;margin-top:4px;text-align:center;&quot;&gt;&lt;i&gt;&amp;lt;&amp;lt;Interface&amp;gt;&amp;gt;&lt;/i&gt;&lt;br&gt;TeamService&lt;br&gt;&lt;/p&gt;&lt;hr size=&quot;1&quot;&gt;&lt;p style=&quot;margin:0px;margin-left:4px;&quot;&gt;&lt;br&gt;&lt;/p&gt;&lt;hr size=&quot;1&quot;&gt;&lt;p style=&quot;margin:0px;margin-left:4px;&quot;&gt;+ findById(Integer id): Team&lt;br&gt;&lt;/p&gt;&lt;p style=&quot;margin:0px;margin-left:4px;&quot;&gt;+ updateTeam(Integer id): Team&lt;/p&gt;" style="verticalAlign=top;align=left;overflow=fill;fontSize=12;fontFamily=Helvetica;html=1;whiteSpace=wrap;" parent="WIyWlLk6GJQsqaUBKTNV-1" vertex="1">
          <mxGeometry x="101.25" y="270" width="206.25" height="110" as="geometry" />
        </mxCell>
        <mxCell id="6G4YK3N6DJGTedGCTqt3-2" value="&lt;p style=&quot;margin:0px;margin-top:4px;text-align:center;&quot;&gt;&lt;b&gt;TeamServiceImpl&lt;/b&gt;&lt;/p&gt;&lt;hr size=&quot;1&quot;&gt;&lt;p style=&quot;margin:0px;margin-left:4px;&quot;&gt;- teamRepository: TeamRepository&lt;/p&gt;&lt;hr size=&quot;1&quot;&gt;&lt;p style=&quot;border-color: var(--border-color); margin: 0px 0px 0px 4px;&quot;&gt;+ findById(Integer id): Team&lt;br style=&quot;border-color: var(--border-color);&quot;&gt;&lt;/p&gt;&lt;p style=&quot;border-color: var(--border-color); margin: 0px 0px 0px 4px;&quot;&gt;+ updateTeam(Integer id): Team&lt;/p&gt;" style="verticalAlign=top;align=left;overflow=fill;fontSize=12;fontFamily=Helvetica;html=1;whiteSpace=wrap;" parent="WIyWlLk6GJQsqaUBKTNV-1" vertex="1">
          <mxGeometry x="101.25" y="470" width="225" height="100" as="geometry" />
        </mxCell>
        <mxCell id="6G4YK3N6DJGTedGCTqt3-3" value="&lt;p style=&quot;margin:0px;margin-top:4px;text-align:center;&quot;&gt;&lt;i&gt;&amp;lt;&amp;lt;Interface&amp;gt;&amp;gt;&lt;/i&gt;&lt;br&gt;&lt;b&gt;TeamRepository&amp;lt;Team, Integer&amp;gt;&lt;/b&gt;&lt;/p&gt;&lt;hr size=&quot;1&quot;&gt;&lt;p style=&quot;margin:0px;margin-left:4px;&quot;&gt;&lt;br&gt;&lt;/p&gt;&lt;hr size=&quot;1&quot;&gt;&lt;p style=&quot;border-color: var(--border-color); margin: 0px 0px 0px 4px;&quot;&gt;+ findById(Integer id): Team&lt;br style=&quot;border-color: var(--border-color);&quot;&gt;&lt;/p&gt;&lt;p style=&quot;border-color: var(--border-color); margin: 0px 0px 0px 4px;&quot;&gt;+ updateTeam(Integer id): Team&lt;/p&gt;" style="verticalAlign=top;align=left;overflow=fill;fontSize=12;fontFamily=Helvetica;html=1;whiteSpace=wrap;" parent="WIyWlLk6GJQsqaUBKTNV-1" vertex="1">
          <mxGeometry x="106.25" y="640" width="225" height="110" as="geometry" />
        </mxCell>
        <mxCell id="6G4YK3N6DJGTedGCTqt3-4" value="&lt;p style=&quot;margin:0px;margin-top:4px;text-align:center;&quot;&gt;&lt;i&gt;&amp;lt;&amp;lt;Interface&amp;gt;&amp;gt;&lt;/i&gt;&lt;br&gt;&lt;b&gt;JpaRepository&lt;/b&gt;&lt;/p&gt;&lt;hr size=&quot;1&quot;&gt;&lt;p style=&quot;margin:0px;margin-left:4px;&quot;&gt;&lt;br&gt;&lt;/p&gt;&lt;hr size=&quot;1&quot;&gt;&lt;p style=&quot;margin:0px;margin-left:4px;&quot;&gt;&lt;br&gt;&lt;/p&gt;" style="verticalAlign=top;align=left;overflow=fill;fontSize=12;fontFamily=Helvetica;html=1;whiteSpace=wrap;" parent="WIyWlLk6GJQsqaUBKTNV-1" vertex="1">
          <mxGeometry x="132.5" y="830" width="162.5" height="100" as="geometry" />
        </mxCell>
        <mxCell id="6G4YK3N6DJGTedGCTqt3-5" value="" style="endArrow=block;endFill=0;endSize=12;html=1;rounded=0;entryX=0.528;entryY=-0.003;entryDx=0;entryDy=0;entryPerimeter=0;" parent="WIyWlLk6GJQsqaUBKTNV-1" source="6G4YK3N6DJGTedGCTqt3-3" target="6G4YK3N6DJGTedGCTqt3-4" edge="1">
          <mxGeometry width="160" relative="1" as="geometry">
            <mxPoint x="204" y="730" as="sourcePoint" />
            <mxPoint x="370" y="779" as="targetPoint" />
          </mxGeometry>
        </mxCell>
        <mxCell id="6G4YK3N6DJGTedGCTqt3-6" value="is" style="edgeLabel;html=1;align=center;verticalAlign=middle;resizable=0;points=[];" parent="6G4YK3N6DJGTedGCTqt3-5" vertex="1" connectable="0">
          <mxGeometry x="0.0767" relative="1" as="geometry">
            <mxPoint x="-7" y="-16" as="offset" />
          </mxGeometry>
        </mxCell>
        <mxCell id="6G4YK3N6DJGTedGCTqt3-7" value="" style="endArrow=diamondThin;endFill=1;endSize=24;html=1;rounded=0;entryX=0.5;entryY=1;entryDx=0;entryDy=0;exitX=0.476;exitY=0.011;exitDx=0;exitDy=0;exitPerimeter=0;" parent="WIyWlLk6GJQsqaUBKTNV-1" source="6G4YK3N6DJGTedGCTqt3-3" target="6G4YK3N6DJGTedGCTqt3-2" edge="1">
          <mxGeometry width="160" relative="1" as="geometry">
            <mxPoint x="212" y="644" as="sourcePoint" />
            <mxPoint x="213" y="570" as="targetPoint" />
          </mxGeometry>
        </mxCell>
        <mxCell id="6G4YK3N6DJGTedGCTqt3-8" value="owns" style="edgeLabel;html=1;align=center;verticalAlign=middle;resizable=0;points=[];" parent="6G4YK3N6DJGTedGCTqt3-7" vertex="1" connectable="0">
          <mxGeometry x="-0.348" relative="1" as="geometry">
            <mxPoint x="-16" y="-10" as="offset" />
          </mxGeometry>
        </mxCell>
        <mxCell id="6G4YK3N6DJGTedGCTqt3-9" value="" style="endArrow=diamondThin;endFill=1;endSize=24;html=1;rounded=0;exitX=0.5;exitY=0;exitDx=0;exitDy=0;entryX=0.5;entryY=1;entryDx=0;entryDy=0;" parent="WIyWlLk6GJQsqaUBKTNV-1" source="6G4YK3N6DJGTedGCTqt3-1" target="6G4YK3N6DJGTedGCTqt3-0" edge="1">
          <mxGeometry width="160" relative="1" as="geometry">
            <mxPoint x="204.995" y="270" as="sourcePoint" />
            <mxPoint x="204" y="200" as="targetPoint" />
          </mxGeometry>
        </mxCell>
        <mxCell id="6G4YK3N6DJGTedGCTqt3-10" value="owns" style="edgeLabel;html=1;align=center;verticalAlign=middle;resizable=0;points=[];" parent="6G4YK3N6DJGTedGCTqt3-9" vertex="1" connectable="0">
          <mxGeometry x="-0.348" relative="1" as="geometry">
            <mxPoint x="-16" y="-10" as="offset" />
          </mxGeometry>
        </mxCell>
        <mxCell id="6G4YK3N6DJGTedGCTqt3-11" value="" style="endArrow=block;dashed=1;endFill=0;endSize=12;html=1;rounded=0;entryX=0.539;entryY=1.004;entryDx=0;entryDy=0;entryPerimeter=0;" parent="WIyWlLk6GJQsqaUBKTNV-1" source="6G4YK3N6DJGTedGCTqt3-2" target="6G4YK3N6DJGTedGCTqt3-1" edge="1">
          <mxGeometry width="160" relative="1" as="geometry">
            <mxPoint x="213.2500000000001" y="469.9000000000001" as="sourcePoint" />
            <mxPoint x="213.73000000000002" y="380" as="targetPoint" />
          </mxGeometry>
        </mxCell>
        <mxCell id="6G4YK3N6DJGTedGCTqt3-12" value="realizes" style="edgeLabel;html=1;align=center;verticalAlign=middle;resizable=0;points=[];" parent="6G4YK3N6DJGTedGCTqt3-11" vertex="1" connectable="0">
          <mxGeometry x="-0.2155" y="-1" relative="1" as="geometry">
            <mxPoint x="-23" as="offset" />
          </mxGeometry>
        </mxCell>
        <mxCell id="w7Sn68mtCisgfnPRvTzS-5" value="Register teacher" style="text;html=1;strokeColor=none;fillColor=none;align=center;verticalAlign=middle;whiteSpace=wrap;rounded=0;" parent="WIyWlLk6GJQsqaUBKTNV-1" vertex="1">
          <mxGeometry x="153.75" y="50" width="120" height="30" as="geometry" />
        </mxCell>
      </root>
    </mxGraphModel>
  </diagram>
</mxfile>
